<svg width="38" height="38" viewBox="0 0 38 38" fill="none" xmlns="http://www.w3.org/2000/svg">
<path d="M37.75 19C37.75 29.3553 29.3553 37.75 19 37.75C8.64466 37.75 0.25 29.3553 0.25 19C0.25 8.64466 8.64466 0.25 19 0.25C29.3553 0.25 37.75 8.64466 37.75 19Z" fill="url(#paint0_linear)"/>
<path d="M37.75 19C37.75 29.3553 29.3553 37.75 19 37.75C8.64466 37.75 0.25 29.3553 0.25 19C0.25 8.64466 8.64466 0.25 19 0.25C29.3553 0.25 37.75 8.64466 37.75 19Z" stroke="url(#paint1_linear)" stroke-width="0.5"/>
<path d="M37.75 19C37.75 29.3553 29.3553 37.75 19 37.75C8.64466 37.75 0.25 29.3553 0.25 19C0.25 8.64466 8.64466 0.25 19 0.25C29.3553 0.25 37.75 8.64466 37.75 19Z" stroke="url(#paint2_linear)" stroke-width="0.5"/>
<path fill-rule="evenodd" clip-rule="evenodd" d="M25.3333 17.5386H19.4872V11.6925H17.5385V17.5386H11.6923V19.4873H17.5385V25.3335H19.4872V19.4873H25.3333V17.5386Z" fill="white"/>
<defs>
<linearGradient id="paint0_linear" x1="19" y1="-7.25954e-07" x2="43.359" y2="18.5128" gradientUnits="userSpaceOnUse">
<stop stop-color="#0B6ECF"/>
<stop offset="1" stop-color="#0EA3E2"/>
</linearGradient>
<linearGradient id="paint1_linear" x1="0.185925" y1="0" x2="0.185925" y2="37.6282" gradientUnits="userSpaceOnUse">
<stop stop-opacity="0"/>
<stop offset="0.8" stop-opacity="0.02"/>
<stop offset="1" stop-opacity="0.04"/>
</linearGradient>
<linearGradient id="paint2_linear" x1="0" y1="0" x2="0" y2="38" gradientUnits="userSpaceOnUse">
<stop stop-color="white" stop-opacity="0.12"/>
<stop offset="0.2" stop-color="white" stop-opacity="0.06"/>
<stop offset="1" stop-color="white" stop-opacity="0"/>
</linearGradient>
</defs>
</svg>
