<svg width="135" height="46" viewBox="0 0 135 46" fill="none" xmlns="http://www.w3.org/2000/svg">
<path d="M44.3737 22.455C44.0343 22.0457 43.6091 21.7146 43.1278 21.4849C42.6465 21.2551 42.1206 21.1322 41.5866 21.1246C39.2202 21.1246 37.8659 23.2901 37.8659 25.4557C37.8659 27.6212 39.2914 29.7018 41.5724 29.7018C42.1071 29.6836 42.6323 29.5553 43.1145 29.3251C43.5967 29.0949 44.0255 28.7677 44.3737 28.3643V31.28C43.4927 31.741 42.5178 31.9975 41.5225 32.0301C37.9585 32.0301 35.3354 28.987 35.3354 25.5194C35.3354 22.0517 37.8659 18.8104 41.5724 18.8104C42.5677 18.8032 43.5487 19.0467 44.4236 19.5181V22.448L44.3737 22.455ZM53.0341 24.0615V19.1077H55.5004V31.6834H53.0341V26.0714H48.4722V31.6834H45.9988V19.1077H48.4651V24.0615H53.0341ZM59.77 21.2307V23.9907H63.726V26.1138H59.77V29.5107H63.8472V31.6338H57.3109V19.1077H63.8543V21.2307H59.77ZM71.4527 21.8606C71.2474 21.546 70.9667 21.287 70.6358 21.1067C70.3049 20.9263 69.9341 20.8304 69.5566 20.8274C69.1648 20.8176 68.7847 20.9601 68.4971 21.2244C68.2096 21.4888 68.0373 21.8542 68.017 22.2427C68.017 24.3658 73.0065 23.4812 73.0065 27.692C73.0065 30.2043 71.4313 31.9877 68.851 31.9877C68.0396 31.9681 67.2489 31.73 66.5634 31.2987C65.8778 30.8674 65.3233 30.2591 64.9591 29.539L66.5772 28.0175C66.7266 28.5159 67.0244 28.9577 67.4316 29.2849C67.8387 29.612 68.336 29.8092 68.8581 29.8504C69.0876 29.8436 69.3133 29.7903 69.5214 29.6939C69.7295 29.5975 69.9156 29.46 70.0684 29.2898C70.2212 29.1195 70.3374 28.9202 70.41 28.7039C70.4825 28.4876 70.5099 28.2588 70.4904 28.0317C70.4904 26.7366 69.2786 26.3686 68.2879 25.9864C66.6627 25.3212 65.4723 24.5074 65.4723 22.5541C65.458 22.0642 65.543 21.5764 65.7222 21.1197C65.9014 20.663 66.1712 20.2467 66.5156 19.8955C66.86 19.5444 67.272 19.2655 67.727 19.0754C68.1821 18.8854 68.6709 18.788 69.1646 18.7892C70.4516 18.8198 71.6812 19.3242 72.6145 20.2046L71.4527 21.8606ZM80.277 21.8606C80.0713 21.5465 79.7906 21.2878 79.4597 21.1075C79.1289 20.9272 78.7583 20.831 78.381 20.8274C77.9885 20.8175 77.6076 20.9598 77.3189 21.224C77.0301 21.4882 76.8563 21.8535 76.8342 22.2427C76.8342 24.3658 81.8238 23.4812 81.8238 27.692C81.8238 30.2043 80.2485 31.9877 77.6682 31.9877C76.8569 31.9681 76.0661 31.73 75.3806 31.2987C74.6951 30.8674 74.1406 30.2591 73.7764 29.539L75.3659 27.9892C75.5153 28.4876 75.8132 28.9294 76.2203 29.2566C76.6274 29.5837 77.1247 29.7809 77.6468 29.8221C77.8757 29.8143 78.1007 29.7604 78.3079 29.6635C78.5152 29.5667 78.7005 29.4291 78.8525 29.259C79.0045 29.0888 79.1201 28.8898 79.1922 28.674C79.2643 28.4581 79.2915 28.2299 79.272 28.0034C79.272 26.7083 78.0674 26.3403 77.0766 25.9581C75.4514 25.2929 74.2254 24.479 74.2254 22.5258C74.2148 22.0328 74.3046 21.5428 74.4895 21.0851C74.6744 20.6274 74.9506 20.2116 75.3015 19.8626C75.6523 19.5136 76.0706 19.2386 76.5312 19.0541C76.9918 18.8697 77.4853 18.7795 77.9818 18.7892C79.2688 18.8198 80.4984 19.3242 81.4318 20.2046L80.277 21.903V21.8606Z" fill="#0088C2"/>
<path d="M90.1634 24.0615V19.1076H92.6297V31.6833H90.1634V26.0713H85.6015V31.6833H83.1353V19.1076H85.6015V24.0615H90.1634ZM100.078 21.2307C97.7475 21.2307 96.3718 23.2759 96.3718 25.307C96.3718 27.3381 97.3483 29.6239 100.078 29.6239C102.808 29.6239 103.785 27.239 103.785 25.307C103.785 23.375 102.431 21.2307 100.078 21.2307ZM100.078 32.0372C96.2221 32.0372 93.8271 29.1073 93.8271 25.4061C93.8271 21.7049 96.3077 18.8104 100.078 18.8104C103.849 18.8104 106.337 21.6766 106.337 25.4061C106.337 29.1356 103.942 32.0372 100.078 32.0372ZM107.491 19.1076H109.958V26.1846C109.958 27.7344 110.093 29.9141 112.189 29.9141C114.284 29.9141 114.42 27.7344 114.42 26.1846V19.1076H116.886V26.6375C116.886 29.7018 115.582 32.016 112.189 32.016C108.796 32.016 107.491 29.7018 107.491 26.6375V19.1076ZM124.598 21.8747C124.393 21.5602 124.112 21.3011 123.782 21.1208C123.451 20.9405 123.08 20.8445 122.702 20.8415C122.311 20.8317 121.93 20.9742 121.643 21.2386C121.355 21.5029 121.183 21.8683 121.163 22.2569C121.163 24.3799 126.152 23.4953 126.152 27.7061C126.152 30.2184 124.57 32.0018 121.99 32.0018C121.178 31.9823 120.388 31.7441 119.702 31.3128C119.016 30.8815 118.462 30.2733 118.098 29.5532L119.687 28.0033C119.837 28.5017 120.135 28.9435 120.542 29.2707C120.949 29.5979 121.446 29.795 121.968 29.8363C122.196 29.8293 122.421 29.7764 122.628 29.6809C122.835 29.5854 123.02 29.4491 123.173 29.2805C123.326 29.1118 123.442 28.9142 123.516 28.6995C123.589 28.4849 123.618 28.2577 123.6 28.0316C123.6 26.7366 122.389 26.3686 121.398 25.9864C119.773 25.3212 118.547 24.5073 118.547 22.5541C118.532 22.0642 118.617 21.5764 118.797 21.1197C118.976 20.663 119.246 20.2467 119.59 19.8955C119.934 19.5444 120.346 19.2655 120.801 19.0754C121.257 18.8854 121.745 18.788 122.239 18.7892C123.528 18.8207 124.759 19.3249 125.696 20.2046L124.534 21.903L124.598 21.8747ZM129.937 21.2449V24.0049H133.858V26.1279H129.937V29.5249H134.014V31.648H127.471V19.1076H134.014V21.2307" fill="#295784"/>
<path d="M36.4474 38.4135C35.5493 34.2523 30.125 35.9436 25.1782 37.3661C23.297 38.0034 21.3431 38.4051 19.3618 38.5621H18.1786C15.0486 38.6146 11.9982 37.5809 9.55376 35.6393C8.10587 34.4597 6.91713 32.9976 6.06107 31.3436L5.98979 31.4003L6.06107 31.3578C6.91569 33.0047 8.04887 34.4936 9.4112 35.7596L9.93867 36.2196L9.98856 36.2621C10.5232 36.7203 11.0927 37.1368 11.6921 37.5076C11.8703 37.6209 12.0557 37.72 12.241 37.819L12.3835 37.8969L12.9324 38.1729H12.9965C13.41 38.3569 13.8376 38.5267 14.2653 38.6683C15.5162 39.0909 16.8287 39.3061 18.15 39.3052H19.3333C24.4511 39.3052 35.1288 33.1695 36.4403 39.1566C36.756 40.6704 36.9254 42.2107 36.9464 43.7566C36.9499 43.7118 36.9499 43.6669 36.9464 43.6221C36.9621 41.8681 36.79 40.1173 36.4332 38.3993L36.4474 38.4135ZM30.4315 12.5473C29.1639 10.9612 27.5432 9.6884 25.6968 8.82886C23.8503 7.96933 21.8283 7.54647 19.7895 7.59349H18.6062C13.4812 7.57934 1.00024 12.7384 1.00024 2.51226C1.00024 2.44149 1.00024 2.38487 1.00024 2.32118C1.41366 11.8538 13.5668 6.89995 18.5991 6.89995H19.7823C24.0235 6.89995 27.8226 9.08672 30.4315 12.5615" fill="#0088C2"/>
<path d="M11.571 32.7803C11.5257 32.8805 11.5014 32.9888 11.4998 33.0987V33.311H22.1916V33.0987C22.19 32.9888 22.1657 32.8805 22.1204 32.7803H11.571ZM26.9816 18.9802L25.4063 16.7723L25.0571 16.7156C25.1711 15.6753 23.4177 14.5289 23.4177 14.5289C24.2881 15.0147 25.0651 15.6496 25.7128 16.4043L25.6701 16.6661L26.9816 18.9802ZM26.5896 16.6166L26.7535 16.2132C26.3068 15.5253 25.7987 14.8787 25.2353 14.2812L24.3372 13.5735C24.2123 12.803 23.8821 12.0797 23.3807 11.4787C22.8794 10.8776 22.2252 10.4207 21.486 10.1553C21.486 10.1553 22.434 10.9409 22.2701 11.507C21.723 10.9486 21.0163 10.5707 20.2457 10.4242C19.0126 10.2332 17.7011 10.5658 17.4587 8.64794C17.3075 8.80495 17.1938 8.99366 17.1259 9.20014C17.058 9.40662 17.0377 9.6256 17.0664 9.84092C17.0952 10.0562 17.1722 10.2624 17.2919 10.4442C17.4116 10.626 17.5709 10.7788 17.7581 10.8913C19.1837 11.9104 17.2876 12.5686 16.7031 12.3633C15.9477 12.0588 15.1212 11.9716 14.3182 12.1117C13.5151 12.2519 12.7681 12.6138 12.1627 13.1559C10.4163 14.8332 10.1098 14.7836 9.062 14.7129C8.0142 14.6421 10.7157 15.8876 12.626 14.0972C14.5363 12.3067 14.7287 15.2012 13.1962 16.1353C11.6637 17.0695 10.4377 17.6073 10.2239 19.1076C10.01 20.6079 9.93874 20.6787 9.37563 21.3298C9.77245 21.1597 10.115 20.8852 10.3662 20.536C10.6174 20.1868 10.7678 19.7761 10.8012 19.3483C10.9366 17.8479 14.0729 19.1147 12.0486 20.6433C10.0243 22.1719 9.55383 22.6461 9.55383 24.3941C9.51838 24.9007 9.31759 25.382 8.98188 25.7651C8.64618 26.1482 8.19386 26.4122 7.69344 26.5172C8.40256 26.5245 9.09128 26.2817 9.63692 25.832C10.1826 25.3823 10.5497 24.7549 10.6729 24.0615C10.679 23.8183 10.7543 23.5817 10.8902 23.3792C11.0261 23.1768 11.217 23.0167 11.4407 22.9174C11.6645 22.8182 11.912 22.7839 12.1545 22.8186C12.3971 22.8532 12.6248 22.9554 12.8113 23.1132C12.9904 23.2479 13.1395 23.4181 13.249 23.613C13.3585 23.8079 13.4261 24.0232 13.4476 24.2453C13.469 24.4675 13.4438 24.6916 13.3735 24.9036C13.3033 25.1156 13.1895 25.3108 13.0394 25.4769C10.345 29.3692 9.30435 32.5538 10.0742 32.4618H13.5098C14.2226 32.4618 21.2222 32.4618 23.1967 32.4618C24.3229 32.4618 25.8269 27.2886 21.8067 23.0636C20.9823 22.3139 20.356 21.3745 19.9831 20.328C19.6102 19.2815 19.5022 18.1601 19.6684 17.0624C19.9137 17.787 20.4005 18.4068 21.0484 18.8198C21.6963 19.2328 22.4666 19.4142 23.2323 19.3341C23.6261 19.7683 23.9462 20.263 24.1803 20.799C24.4423 21.3627 24.5244 21.9924 24.4156 22.6036C24.5895 22.8997 24.8613 23.127 25.1848 23.247C25.5082 23.3669 25.8635 23.3722 26.1904 23.2618C26.1904 23.2618 25.107 22.5541 25.4776 21.7332C26.6822 20.7353 27.4948 22.7027 27.4948 22.7027L28.6068 22.4338L29.0701 21.5067C28.3625 19.8232 27.536 18.1915 26.5967 16.6236L26.5896 16.6166ZM36.9536 43.7636C36.9323 42.2202 36.7628 40.6822 36.4475 39.1707C35.5494 35.0024 30.0894 36.715 25.1355 38.1375C24.4227 38.3286 23.8026 38.5196 23.161 38.6824C21.925 39.0453 20.6494 39.2592 19.3619 39.3193H18.1786C16.8575 39.3173 15.5455 39.1022 14.2939 38.6824C12.4765 38.0664 10.8137 37.0697 9.4184 35.7596C8.05593 34.4921 6.92064 33.0035 6.06114 31.3578L5.98987 31.4003C5.52655 31.6904 2.68964 33.6861 1.5064 39.1849C1.15565 40.8989 0.986041 42.6445 1.00032 44.3935C0.976002 44.5941 0.998051 44.7977 1.06479 44.9886C1.13153 45.1795 1.2412 45.3529 1.38548 45.4954C1.52976 45.638 1.70486 45.746 1.89748 45.8114C2.09011 45.8767 2.2952 45.8977 2.49718 45.8726H5.60496C5.80554 45.8924 6.00805 45.8678 6.19788 45.8005C6.38771 45.7332 6.56012 45.6248 6.70265 45.4833C6.84519 45.3418 6.95429 45.1706 7.02209 44.9822C7.08989 44.7937 7.11469 44.5926 7.0947 44.3935C7.0743 44.2291 7.09166 44.0622 7.14548 43.9055C7.19931 43.7487 7.28819 43.606 7.40547 43.4882C7.52275 43.3704 7.66538 43.2805 7.82265 43.2253C7.97993 43.17 8.14777 43.1508 8.31357 43.1692H13.0323C13.3538 43.1746 13.6606 43.3039 13.8881 43.5297C14.1155 43.7554 14.2456 44.0601 14.2511 44.3793C14.2313 44.5788 14.2562 44.7801 14.324 44.9688C14.3917 45.1576 14.5007 45.3291 14.6431 45.4711C14.7854 45.6132 14.9577 45.7222 15.1475 45.7904C15.3373 45.8585 15.5399 45.8842 15.7409 45.8655H22.2273C22.4282 45.8842 22.6309 45.8585 22.8207 45.7904C23.0105 45.7222 23.1827 45.6132 23.3251 45.4711C23.4675 45.3291 23.5764 45.1576 23.6442 44.9688C23.712 44.7801 23.7368 44.5788 23.717 44.3793C23.7207 44.0595 23.8503 43.7538 24.0781 43.5277C24.3059 43.3015 24.6138 43.1729 24.9359 43.1692H29.6475C29.8122 43.1499 29.9792 43.1679 30.136 43.2219C30.2927 43.2758 30.4351 43.3644 30.5524 43.4809C30.6697 43.5973 30.7589 43.7387 30.8133 43.8943C30.8677 44.0499 30.8858 44.2158 30.8663 44.3793C30.8439 44.5802 30.8671 44.7836 30.9343 44.9744C31.0014 45.1652 31.1109 45.3387 31.2545 45.4819C31.3981 45.6252 31.5723 45.7347 31.7642 45.8023C31.956 45.8699 32.1607 45.8939 32.3632 45.8726H35.471C35.6727 45.8963 35.8772 45.8744 36.0691 45.8085C36.2611 45.7427 36.4356 45.6346 36.5796 45.4923C36.7235 45.3501 36.8332 45.1773 36.9005 44.9871C36.9677 44.7968 36.9907 44.5939 36.9678 44.3935C36.9678 44.1812 36.9678 43.9689 36.9678 43.7636H36.9536ZM35.471 0.346709H32.3632C32.1621 0.325734 31.9587 0.349515 31.768 0.416323C31.5773 0.483132 31.404 0.59129 31.2606 0.732938C31.1173 0.874585 31.0075 1.04616 30.9393 1.2352C30.8711 1.42424 30.8462 1.62599 30.8663 1.82579C30.8858 1.98936 30.8677 2.15519 30.8133 2.31081C30.7589 2.46643 30.6697 2.60778 30.5524 2.72425C30.4351 2.84073 30.2927 2.92928 30.136 2.98327C29.9792 3.03725 29.8122 3.05526 29.6475 3.03594H24.9359C24.6144 3.03048 24.3075 2.90123 24.0801 2.67546C23.8527 2.44968 23.7225 2.14503 23.717 1.82579C23.737 1.62571 23.712 1.42373 23.6438 1.23441C23.5757 1.04509 23.466 0.873148 23.3229 0.730982C23.1797 0.588816 23.0065 0.479971 22.8158 0.412296C22.6251 0.344621 22.4217 0.319804 22.2202 0.339632H15.7409C15.5394 0.319804 15.3359 0.344621 15.1452 0.412296C14.9546 0.479971 14.7814 0.588816 14.6382 0.730982C14.495 0.873148 14.3854 1.04509 14.3172 1.23441C14.249 1.42373 14.224 1.62571 14.244 1.82579C14.2422 2.14495 14.1141 2.45063 13.8875 2.67698C13.6608 2.90332 13.3537 3.03223 13.0323 3.03594H8.31357C8.1491 3.05388 7.98267 3.03491 7.82657 2.98044C7.67047 2.92597 7.52868 2.83738 7.41168 2.72122C7.29468 2.60506 7.20546 2.46429 7.15059 2.3093C7.09573 2.15432 7.07663 1.98908 7.0947 1.82579C7.11469 1.62664 7.08989 1.42558 7.02209 1.2371C6.95429 1.04863 6.84519 0.877462 6.70265 0.735948C6.56012 0.594434 6.38771 0.48611 6.19788 0.418797C6.00805 0.351484 5.80554 0.326862 5.60496 0.346709H2.49718C2.29481 0.322811 2.08962 0.344809 1.89706 0.411045C1.70449 0.477281 1.52957 0.58603 1.38547 0.729103C1.24136 0.872176 1.13183 1.04585 1.06512 1.23703C0.998402 1.42822 0.976246 1.63194 1.00032 1.83286C1.00032 2.00271 1.00032 2.16548 1.00032 2.32825C1.41374 11.8538 13.5669 6.89994 18.5992 6.89994H19.7824C24.0235 6.89994 27.8227 9.08671 30.4315 12.5615C30.9804 13.2891 31.4713 14.0581 31.8999 14.8615C31.8999 14.8615 36.9607 12.0307 36.9607 1.83286C36.986 1.63232 36.9649 1.4287 36.8991 1.23746C36.8333 1.04621 36.7244 0.872365 36.5809 0.729116C36.4373 0.585867 36.2627 0.47698 36.0704 0.41072C35.8781 0.344461 35.6731 0.32257 35.471 0.346709ZM19.3619 38.5621C21.3432 38.4051 23.2971 38.0033 25.1782 37.3661V36.2763C25.1764 36.0647 25.0909 35.8624 24.9403 35.7128C24.7896 35.5633 24.5858 35.4784 24.3728 35.4766H10.0243C9.85041 35.4711 9.68056 35.529 9.5467 35.6393C11.9931 37.5824 15.0462 38.6162 18.1786 38.5621H19.3619ZM10.0243 35.1652V34.4575C10.0233 34.3522 10.0435 34.2478 10.0836 34.1503C10.1238 34.0529 10.1831 33.9644 10.2581 33.8899C10.333 33.8155 10.4222 33.7566 10.5204 33.7167C10.6185 33.6769 10.7237 33.6568 10.8297 33.6578H22.8831C22.9891 33.6568 23.0943 33.6769 23.1924 33.7167C23.2906 33.7566 23.3797 33.8155 23.4547 33.8899C23.5297 33.9644 23.589 34.0529 23.6291 34.1503C23.6693 34.2478 23.6895 34.3522 23.6885 34.4575V35.1652H10.0243Z" fill="#295784"/>
<path d="M60.4686 40.2464C60.3639 40.1241 60.234 40.0255 60.0877 39.9571C59.9414 39.8887 59.7821 39.8523 59.6204 39.8501C59.4742 39.8617 59.3317 39.9019 59.2012 39.9684C59.0707 40.0349 58.9548 40.1263 58.86 40.2375C58.7653 40.3486 58.6936 40.4773 58.6492 40.6161C58.6047 40.7549 58.5884 40.901 58.6011 41.0461C58.5883 41.1924 58.6062 41.3398 58.6537 41.479C58.7012 41.6181 58.7773 41.7459 58.8771 41.8543C58.9769 41.9628 59.0983 42.0494 59.2336 42.1089C59.3689 42.1683 59.5152 42.1992 59.6632 42.1996C59.8176 42.1955 59.9694 42.1587 60.1083 42.0915C60.2472 42.0244 60.3701 41.9286 60.4686 41.8104V42.9144C60.1585 43.0899 59.8061 43.178 59.4493 43.1692C59.1733 43.1675 58.9004 43.1107 58.6469 43.0023C58.3934 42.8938 58.1644 42.7359 57.9736 42.5378C57.7827 42.3398 57.6339 42.1057 57.536 41.8494C57.4381 41.5932 57.3931 41.32 57.4036 41.0461C57.3978 40.7657 57.4491 40.487 57.5545 40.2268C57.6599 39.9666 57.8172 39.7303 58.0169 39.532C58.2167 39.3337 58.4547 39.1775 58.7168 39.0729C58.9789 38.9682 59.2596 38.9172 59.542 38.923C59.8735 38.9187 60.1995 39.007 60.4829 39.1778V40.2818L60.4686 40.2464ZM62.4288 36.0923V39.3476C62.5595 39.1968 62.725 39.0794 62.9111 39.0055C63.0972 38.9316 63.2985 38.9033 63.498 38.923C64.5814 38.923 64.9236 39.6803 64.9236 40.6144V43.0701H63.7261V40.947C63.7261 40.4658 63.7261 39.843 63.0988 39.843C62.4716 39.843 62.386 40.6003 62.386 41.0886V43.0772H61.2741V36.0923H62.4288ZM68.3236 40.487C68.3158 40.2827 68.2334 40.0881 68.0917 39.9397C67.9501 39.7912 67.7589 39.699 67.5538 39.6803C67.3469 39.6944 67.153 39.7852 67.0104 39.9346C66.8679 40.0841 66.787 40.2812 66.7839 40.487H68.3236ZM66.7483 41.1947C66.7483 41.6972 66.9479 42.2704 67.5466 42.2704C67.7129 42.2694 67.8752 42.2198 68.0133 42.128C68.1514 42.0361 68.2593 41.906 68.3236 41.7538L69.3856 41.9236C69.2544 42.2997 69.0047 42.6239 68.6735 42.8482C68.3423 43.0725 67.9472 43.185 67.5466 43.1692C67.2688 43.1784 66.9921 43.1288 66.735 43.0237C66.4779 42.9185 66.2463 42.7603 66.0555 42.5595C65.8647 42.3588 65.7192 42.12 65.6285 41.859C65.5378 41.5981 65.504 41.321 65.5294 41.0461C65.5294 39.8289 66.1781 38.8664 67.4896 38.8664C68.8012 38.8664 69.4284 39.8572 69.4284 41.0461V41.1876L66.7483 41.1947ZM72.0444 39.9492C71.8851 39.784 71.6684 39.6853 71.4385 39.6732C71.3437 39.6711 71.2517 39.7051 71.1815 39.7683C71.1112 39.8315 71.068 39.919 71.0607 40.0129C71.0607 40.3101 71.4741 40.395 71.8875 40.5719C72.1405 40.6466 72.3606 40.804 72.512 41.0185C72.6634 41.2331 72.7373 41.4923 72.7215 41.7538C72.7226 41.9529 72.6814 42.1499 72.6006 42.3321C72.5198 42.5143 72.4012 42.6775 72.2525 42.8111C72.1039 42.9446 71.9285 43.0456 71.7379 43.1073C71.5472 43.169 71.3456 43.1901 71.1462 43.1692C70.8707 43.1629 70.6001 43.0963 70.3536 42.9739C70.1071 42.8516 69.891 42.6766 69.7207 42.4615L70.2481 41.7538C70.3503 41.8863 70.4791 41.9962 70.6263 42.0766C70.7736 42.157 70.9361 42.2062 71.1035 42.2209C71.1629 42.2248 71.2225 42.2165 71.2786 42.1965C71.3347 42.1766 71.3861 42.1454 71.4295 42.1049C71.473 42.0644 71.5076 42.0155 71.5312 41.9612C71.5548 41.9069 71.5669 41.8483 71.5668 41.7892C71.5668 41.4353 71.1676 41.3575 70.7613 41.1806C70.5266 41.1213 70.3192 40.9848 70.1728 40.7932C70.0265 40.6016 69.95 40.3664 69.9559 40.1261C69.9469 39.9552 69.9738 39.7842 70.0347 39.6241C70.0956 39.464 70.1894 39.3182 70.3099 39.1958C70.4305 39.0734 70.5753 38.9772 70.7352 38.9132C70.8951 38.8492 71.0666 38.8188 71.2389 38.8239C71.7081 38.8173 72.1664 38.964 72.5433 39.2415L72.0444 39.9067V39.9492ZM75.4373 39.9492C75.278 39.784 75.0613 39.6853 74.8314 39.6732C74.7358 39.671 74.643 39.7048 74.5716 39.7678C74.5002 39.8309 74.4555 39.9184 74.4465 40.0129C74.4465 40.3101 74.867 40.395 75.2804 40.5719C75.5334 40.6466 75.7535 40.804 75.9049 41.0185C76.0563 41.2331 76.1302 41.4923 76.1144 41.7538C76.1155 41.9529 76.0743 42.1499 75.9935 42.3321C75.9127 42.5143 75.7941 42.6775 75.6454 42.8111C75.4967 42.9446 75.3214 43.0456 75.1307 43.1073C74.9401 43.169 74.7385 43.1901 74.5391 43.1692C74.2636 43.1629 73.993 43.0963 73.7465 42.9739C73.5 42.8516 73.2839 42.6766 73.1135 42.4615L73.641 41.7538C73.7446 41.8865 73.8746 41.9965 74.0231 42.0769C74.1715 42.1572 74.3351 42.2063 74.5035 42.2209C74.5624 42.2237 74.6212 42.2147 74.6765 42.1943C74.7317 42.1739 74.7822 42.1426 74.8249 42.1022C74.8675 42.0618 74.9015 42.0132 74.9247 41.9594C74.9478 41.9056 74.9598 41.8477 74.9597 41.7892C74.9597 41.4353 74.5605 41.3575 74.1542 41.1806C73.9202 41.1202 73.7134 40.9833 73.5673 40.792C73.4212 40.6007 73.3442 40.3661 73.3488 40.1261C73.3398 39.9552 73.3667 39.7842 73.4276 39.6241C73.4885 39.464 73.5822 39.3182 73.7028 39.1958C73.8234 39.0734 73.9682 38.9772 74.1281 38.9132C74.2879 38.8492 74.4595 38.8188 74.6318 38.8239C75.101 38.8173 75.5593 38.964 75.9362 39.2415L75.4373 39.9067V39.9492ZM79.5073 43.0206H80.662V39.015H79.5073V43.0347V43.0206ZM80.7689 37.3166C80.7689 37.4565 80.7271 37.5934 80.6488 37.7097C80.5705 37.8261 80.4592 37.9168 80.3289 37.9704C80.1987 38.0239 80.0554 38.038 79.9171 38.0107C79.7788 37.9834 79.6518 37.9159 79.5521 37.817C79.4524 37.718 79.3846 37.5919 79.357 37.4546C79.3295 37.3173 79.3437 37.1751 79.3976 37.0457C79.4516 36.9164 79.5429 36.8059 79.6601 36.7281C79.7774 36.6504 79.9152 36.6089 80.0562 36.6089C80.2452 36.6089 80.4265 36.6834 80.5602 36.8161C80.6938 36.9489 80.7689 37.1289 80.7689 37.3166ZM82.7149 39.3689C82.8345 39.2048 82.9939 39.0734 83.1783 38.9868C83.3627 38.9002 83.5662 38.8612 83.7698 38.8735C84.8604 38.8735 85.1954 39.6307 85.1954 40.5649V43.0276H84.0407V40.9046C84.0407 40.4233 84.0407 39.8006 83.4134 39.8006C82.7861 39.8006 82.7006 40.5578 82.7006 41.0461V43.0276H81.5459V39.015H82.7006V39.383L82.7149 39.3689ZM91.2256 40.4799C91.2178 40.2756 91.1354 40.081 90.9938 39.9326C90.8521 39.7841 90.6609 39.6919 90.4558 39.6732C90.249 39.6874 90.0551 39.7781 89.9125 39.9276C89.7699 40.077 89.6891 40.2741 89.686 40.4799H91.2256ZM89.6503 41.1876C89.6503 41.6901 89.8499 42.2633 90.4487 42.2633C90.6182 42.26 90.7828 42.2063 90.9213 42.1092C91.0598 42.012 91.1658 41.8759 91.2256 41.7184L92.2877 41.8883C92.1616 42.2703 91.9143 42.6016 91.5828 42.8325C91.2513 43.0634 90.8534 43.1815 90.4487 43.1692C90.1705 43.1795 89.8933 43.1307 89.6357 43.026C89.378 42.9213 89.1459 42.7631 88.9549 42.562C88.7639 42.361 88.6183 42.1217 88.5281 41.8603C88.4378 41.5988 88.4049 41.3212 88.4315 41.0461C88.4315 39.8289 89.0801 38.8664 90.3916 38.8664C91.7032 38.8664 92.3091 39.843 92.3091 41.0532V41.1947L89.6503 41.1876ZM94.5045 41.2584L95.3384 38.9938H96.6001L94.7397 43.0913H94.1481L92.2948 38.9938H93.5636L94.5045 41.2584ZM99.3657 40.4941C99.3581 40.2909 99.2767 40.0972 99.1365 39.9489C98.9963 39.8006 98.8068 39.7077 98.603 39.6873C98.3955 39.7014 98.2008 39.7919 98.057 39.9412C97.9133 40.0905 97.8309 40.2877 97.8261 40.4941H99.3657ZM97.7976 41.2018C97.7976 41.7043 97.99 42.2775 98.5959 42.2775C98.7619 42.2754 98.9237 42.2246 99.0607 42.1314C99.1977 42.0382 99.3038 41.9068 99.3657 41.7538L100.428 41.9236C100.299 42.2998 100.051 42.6244 99.7205 42.8489C99.3903 43.0734 98.9957 43.1858 98.5959 43.1692C98.3177 43.1795 98.0405 43.1307 97.7829 43.026C97.5252 42.9213 97.2931 42.7631 97.1021 42.562C96.9111 42.361 96.7656 42.1217 96.6753 41.8603C96.585 41.5988 96.5521 41.3212 96.5787 41.0461C96.5787 39.8289 97.2273 38.8664 98.5389 38.8664C99.8504 38.8664 100.456 39.843 100.456 41.0532V41.1947L97.7976 41.2018ZM102.253 39.4255C102.357 39.2552 102.505 39.1153 102.682 39.0197C102.858 38.924 103.057 38.8761 103.258 38.8806C103.422 38.8813 103.584 38.915 103.735 38.9796L103.593 40.0412C103.453 39.9438 103.286 39.8919 103.115 39.8926C102.317 39.8926 102.238 40.6003 102.238 41.2159V43.0276H101.084V39.015H102.238V39.4326L102.253 39.4255ZM103.935 39.0079H105.246L106.209 41.2867L107.249 39.0079H108.532L105.596 45.1649H104.355L105.688 42.4119L103.935 39.0079ZM112.674 36.0923V39.3476C112.798 39.1911 112.96 39.0669 113.143 38.9856C113.327 38.9042 113.528 38.8682 113.728 38.8806C114.812 38.8806 115.154 39.6378 115.154 40.5719V43.0276H113.999V40.9046C113.999 40.4233 113.999 39.8006 113.379 39.8006C112.759 39.8006 112.666 40.5578 112.666 41.0461V43.0347H111.483V36.0923H112.674ZM116.95 41.0461C116.985 41.2254 117.071 41.391 117.198 41.5236C117.324 41.6563 117.486 41.7505 117.664 41.7952C117.843 41.84 118.03 41.8334 118.205 41.7763C118.38 41.7192 118.534 41.614 118.651 41.4728C118.768 41.3317 118.842 41.1605 118.864 40.9792C118.886 40.7979 118.856 40.6141 118.777 40.4491C118.698 40.2841 118.574 40.1449 118.418 40.0476C118.263 39.9503 118.082 39.899 117.898 39.8996C117.757 39.9085 117.618 39.9455 117.492 40.0083C117.365 40.0711 117.252 40.1585 117.159 40.2654C117.067 40.3722 116.997 40.4963 116.954 40.6304C116.911 40.7645 116.895 40.9059 116.908 41.0461H116.95ZM119.987 41.0461C119.987 41.466 119.861 41.8765 119.626 42.2256C119.391 42.5748 119.057 42.8469 118.667 43.0076C118.276 43.1683 117.846 43.2103 117.431 43.1284C117.016 43.0465 116.635 42.8443 116.336 42.5473C116.037 42.2504 115.834 41.8721 115.751 41.4603C115.669 41.0485 115.711 40.6216 115.873 40.2336C116.035 39.8457 116.309 39.5141 116.66 39.2808C117.012 39.0475 117.425 38.923 117.848 38.923C118.133 38.9099 118.417 38.9559 118.682 39.0579C118.948 39.16 119.189 39.3159 119.39 39.5157C119.591 39.7155 119.748 39.9549 119.851 40.2184C119.954 40.4819 120 40.7638 119.987 41.0461ZM121.776 39.3972C121.891 39.244 122.04 39.1199 122.212 39.035C122.384 38.9501 122.574 38.9069 122.767 38.9089C123 38.8983 123.231 38.9514 123.436 39.0625C123.641 39.1735 123.811 39.3383 123.929 39.5387C124.058 39.3463 124.233 39.1883 124.438 39.0785C124.643 38.9687 124.872 38.9105 125.105 38.9089C126.138 38.9089 126.388 39.6732 126.388 40.5507V43.0276H125.24V40.9046C125.24 40.5153 125.24 39.7864 124.691 39.7864C124.142 39.7864 124.078 40.6286 124.078 41.0461V43.0206H122.924V40.9966C122.924 40.6003 122.973 39.8006 122.368 39.8006C121.762 39.8006 121.762 40.6356 121.762 41.0603V43.0347H120.607V39.015H121.762V39.3759L121.776 39.3972ZM129.838 40.5153C129.83 40.3121 129.749 40.1184 129.608 39.9701C129.468 39.8218 129.279 39.7289 129.075 39.7086C128.867 39.7226 128.673 39.8132 128.529 39.9624C128.385 40.1117 128.303 40.3089 128.298 40.5153H129.838ZM128.262 41.223C128.262 41.7255 128.462 42.2987 129.061 42.2987C129.23 42.2964 129.395 42.243 129.534 42.1458C129.673 42.0485 129.779 41.9119 129.838 41.7538L130.9 41.9236C130.771 42.2998 130.523 42.6244 130.192 42.8489C129.862 43.0734 129.468 43.1858 129.068 43.1692C128.79 43.1795 128.512 43.1307 128.255 43.026C127.997 42.9213 127.765 42.7631 127.574 42.562C127.383 42.361 127.237 42.1217 127.147 41.8603C127.057 41.5988 127.024 41.3212 127.051 41.0461C127.051 39.8289 127.699 38.8664 129.011 38.8664C130.322 38.8664 130.928 39.843 130.928 41.0532V41.1947L128.262 41.223ZM132.96 42.4615C132.96 42.6548 132.882 42.8402 132.745 42.9769C132.607 43.1136 132.42 43.1904 132.225 43.1904C132.031 43.1904 131.844 43.1136 131.706 42.9769C131.569 42.8402 131.491 42.6548 131.491 42.4615C131.491 42.2682 131.569 42.0828 131.706 41.9461C131.844 41.8094 132.031 41.7326 132.225 41.7326C132.42 41.7326 132.607 41.8094 132.745 41.9461C132.882 42.0828 132.96 42.2682 132.96 42.4615Z" fill="#295784"/>
<path d="M50.183 11.8609H45.9775V11.4858L46.2413 11.408C46.3482 11.408 46.391 11.3301 46.391 11.2523V8.33657C46.391 8.25872 46.3482 8.20211 46.2413 8.18088L45.9775 8.10303V7.72087H50.2543V9.19995H49.5415L49.4702 8.75411C49.3205 8.21626 48.9713 8.10303 48.1872 8.10303H47.7524V9.61749H47.895C48.0518 9.61749 48.344 9.56087 48.4224 9.34149L48.6006 8.88149H49.0924L48.9142 10.6578H48.4438L48.3511 10.2473C48.3084 10.035 48.1943 9.95718 47.8664 9.95718H47.7524V11.4858H48.2228C48.9356 11.4858 49.3419 11.3726 49.4916 10.8206L49.6128 10.3747H50.3256L50.183 11.8609ZM54.5738 11.967C54.0553 11.9623 53.539 11.9006 53.0342 11.783V10.5021H53.747L54.0392 11.4787C54.2239 11.5354 54.4162 11.564 54.6095 11.5636C55.0799 11.5636 55.3793 11.316 55.3793 11.0046C55.3793 10.6932 55.0514 10.4101 54.3814 10.2403C53.4334 10.0067 52.9558 9.70241 52.9558 8.93103C52.9558 8.15964 53.5973 7.63595 54.6237 7.63595C55.0474 7.65455 55.4691 7.70422 55.8854 7.78457L56.2631 7.68549V9.10087H55.6074L55.2225 8.13134C55.0311 8.07109 54.8316 8.04007 54.6308 8.03934C54.196 8.03934 53.918 8.24457 53.918 8.5418C53.918 8.83903 54.1747 9.07964 54.7663 9.24949C55.8854 9.53257 56.3914 9.86518 56.3914 10.6649C56.3914 11.4646 55.6786 12.0236 54.5667 12.0236L54.5738 11.967ZM62.6711 9.31318L62.55 8.81072C62.4217 8.27287 62.1793 8.15964 61.8728 8.15964H61.716V11.2523C61.716 11.3301 61.7588 11.3796 61.8657 11.408L62.2007 11.4858V11.8609H59.9198V11.4858L60.2477 11.408C60.3546 11.408 60.3973 11.3301 60.3973 11.2523V8.08888H60.2619C59.8984 8.08888 59.6988 8.23749 59.5491 8.79657L59.4279 9.29195H58.7365L58.872 7.75626H63.3839V9.29195L62.6711 9.31318ZM65.9642 12.0307C65.7701 12.0123 65.5899 11.9227 65.4587 11.7794C65.3275 11.6361 65.2548 11.4494 65.2548 11.2558C65.2548 11.0622 65.3275 10.8755 65.4587 10.7322C65.5899 10.5889 65.7701 10.4993 65.9642 10.4809C66.1584 10.4993 66.3386 10.5889 66.4698 10.7322C66.601 10.8755 66.6736 11.0622 66.6736 11.2558C66.6736 11.4494 66.601 11.6361 66.4698 11.7794C66.3386 11.9227 66.1584 12.0123 65.9642 12.0307ZM72.9496 11.8892V11.4716L73.4272 11.3726C73.5769 11.3372 73.6268 11.2664 73.6268 11.1744V8.49226L72.7073 8.40026V8.06764L74.9454 7.48026V11.1744C74.9454 11.2664 75.0025 11.3443 75.1521 11.3726L75.6511 11.4716V11.8892H72.9496ZM79.8637 8.04641C79.4574 8.04641 79.2578 8.41441 79.2578 9.21411C79.2578 10.1553 79.6641 10.6295 80.1845 10.6295C80.3621 10.6311 80.5351 10.5738 80.6763 10.4667C80.6965 10.2856 80.6965 10.1029 80.6763 9.9218C80.6763 9.05841 80.3983 8.07472 79.8352 8.07472L79.8637 8.04641ZM78.1886 13.6443L78.0104 13.255C78.6442 13.186 79.2423 12.929 79.7268 12.5174C80.2112 12.1059 80.5595 11.5589 80.7262 10.948L80.6905 10.9126C80.3157 11.1775 79.8676 11.3208 79.4075 11.323C79.1872 11.3164 78.9706 11.2648 78.7713 11.1713C78.572 11.0779 78.3942 10.9447 78.2491 10.78C78.104 10.6153 77.9946 10.4227 77.9277 10.2141C77.8609 10.0056 77.8381 9.78563 77.8608 9.56795C77.8774 9.01599 78.1101 8.4922 78.5093 8.10772C78.9085 7.72324 79.4429 7.50832 79.9991 7.50857C80.3015 7.51291 80.5997 7.57964 80.8748 7.70452C81.1498 7.8294 81.3957 8.00971 81.5968 8.23398C81.7978 8.45826 81.9498 8.7216 82.0429 9.00729C82.1359 9.29298 82.1682 9.59477 82.1375 9.89349C82.1375 11.8326 80.5836 13.432 78.2029 13.5947L78.1886 13.6443ZM85.9723 13.4461H85.1669L87.7686 8.61257H86.8847C85.4591 8.61257 85.3451 8.66918 85.2096 8.89564L84.9245 9.42641H84.5396L84.782 7.6218H88.6738L88.7166 7.95441L85.9723 13.4461ZM94.6755 11.8396H90.9405L90.8692 11.132C91.9883 10.3393 92.8437 9.80149 92.8437 9.13626C92.8515 9.03868 92.839 8.94053 92.8067 8.84802C92.7744 8.75551 92.7232 8.67066 92.6562 8.59883C92.5892 8.527 92.5079 8.46974 92.4175 8.43069C92.3271 8.39164 92.2295 8.37164 92.1309 8.37195C91.7032 8.37195 91.4181 8.61257 91.1472 9.0018L90.9334 8.88857C91.0473 8.47088 91.3002 8.10372 91.6508 7.84676C92.0015 7.58979 92.4295 7.45814 92.865 7.47318C93.6848 7.47318 94.2906 7.91903 94.2906 8.61964C94.2906 9.49718 93.0005 10.1412 91.9099 10.8772V10.9196H92.5086C93.9342 10.9196 94.1196 10.9196 94.255 10.679L94.476 10.2827H94.8537L94.7112 11.8326L94.6755 11.8396Z" fill="#3A3431"/>
</svg>
