<svg width="61" height="27" viewBox="0 0 61 27" fill="none" xmlns="http://www.w3.org/2000/svg">
<rect x="0.556152" y="0.5" width="59" height="26" rx="4.5" stroke="#0B6ECF"/>
<path d="M9.05615 9.5L16.0562 16.5H9.05615" stroke="#0B6ECF" stroke-width="2"/>
<path d="M22.9802 17V8.456H28.6922V9.68H24.4922V12.044H28.4402V13.268H24.4922V15.776H28.6922V17H22.9802ZM30.7169 8.456H33.8609C35.2609 8.456 36.3449 8.828 37.1129 9.572C37.8889 10.316 38.2769 11.364 38.2769 12.716C38.2769 14.076 37.8889 15.132 37.1129 15.884C36.3449 16.628 35.2609 17 33.8609 17H30.7169V8.456ZM33.7649 15.74C35.7329 15.74 36.7169 14.732 36.7169 12.716C36.7169 10.716 35.7329 9.716 33.7649 9.716H32.2649V15.74H33.7649ZM40.4575 17V8.456H42.0055V17H40.4575ZM46.4599 17V9.728H43.6759V8.456H50.8159V9.728H48.0199V17H46.4599Z" fill="#0B6ECF"/>
</svg>
