<svg width="72" height="110" viewBox="0 0 72 110" fill="none" xmlns="http://www.w3.org/2000/svg">
<path d="M0 10C0 4.47715 4.47715 0 10 0H88C93.5229 0 98 4.47715 98 10V100C98 105.523 93.5229 110 88 110H10C4.47715 110 0 105.523 0 100V10Z" fill="url(#paint0_linear)"/>
<path d="M25.123 75.7734H21.5488L20.7461 78H19.5859L22.8438 69.4688H23.8281L27.0918 78H25.9375L25.123 75.7734ZM21.8887 74.8477H24.7891L23.3359 70.8574L21.8887 74.8477ZM31.7617 76.3184C31.7617 76.0254 31.6504 75.7988 31.4277 75.6387C31.209 75.4746 30.8242 75.334 30.2734 75.2168C29.7266 75.0996 29.291 74.959 28.9668 74.7949C28.6465 74.6309 28.4082 74.4355 28.252 74.209C28.0996 73.9824 28.0234 73.7129 28.0234 73.4004C28.0234 72.8809 28.2422 72.4414 28.6797 72.082C29.1211 71.7227 29.6836 71.543 30.3672 71.543C31.0859 71.543 31.668 71.7285 32.1133 72.0996C32.5625 72.4707 32.7871 72.9453 32.7871 73.5234H31.6973C31.6973 73.2266 31.5703 72.9707 31.3164 72.7559C31.0664 72.541 30.75 72.4336 30.3672 72.4336C29.9727 72.4336 29.6641 72.5195 29.4414 72.6914C29.2188 72.8633 29.1074 73.0879 29.1074 73.3652C29.1074 73.627 29.2109 73.8242 29.418 73.957C29.625 74.0898 29.998 74.2168 30.5371 74.3379C31.0801 74.459 31.5195 74.6035 31.8555 74.7715C32.1914 74.9395 32.4395 75.1426 32.5996 75.3809C32.7637 75.6152 32.8457 75.9023 32.8457 76.2422C32.8457 76.8086 32.6191 77.2637 32.166 77.6074C31.7129 77.9473 31.125 78.1172 30.4023 78.1172C29.8945 78.1172 29.4453 78.0273 29.0547 77.8477C28.6641 77.668 28.3574 77.418 28.1348 77.0977C27.916 76.7734 27.8066 76.4238 27.8066 76.0488H28.8906C28.9102 76.4121 29.0547 76.7012 29.3242 76.916C29.5977 77.127 29.957 77.2324 30.4023 77.2324C30.8125 77.2324 31.1406 77.1504 31.3867 76.9863C31.6367 76.8184 31.7617 76.5957 31.7617 76.3184ZM36.0273 75.0645L35.3477 75.7734V78H34.2637V69H35.3477V74.4434L35.9277 73.7461L37.9023 71.6602H39.2207L36.7539 74.3086L39.5078 78H38.2363L36.0273 75.0645ZM43.8496 78V72.498H42.8477V71.6602H43.8496V71.0098C43.8496 70.3301 44.0312 69.8047 44.3945 69.4336C44.7578 69.0625 45.2715 68.877 45.9355 68.877C46.1855 68.877 46.4336 68.9102 46.6797 68.9766L46.6211 69.8555C46.4375 69.8203 46.2422 69.8027 46.0352 69.8027C45.6836 69.8027 45.4121 69.9062 45.2207 70.1133C45.0293 70.3164 44.9336 70.6094 44.9336 70.9922V71.6602H46.2871V72.498H44.9336V78H43.8496ZM47.2012 74.7715C47.2012 74.1504 47.3223 73.5918 47.5645 73.0957C47.8105 72.5996 48.1504 72.2168 48.584 71.9473C49.0215 71.6777 49.5195 71.543 50.0781 71.543C50.9414 71.543 51.6387 71.8418 52.1699 72.4395C52.7051 73.0371 52.9727 73.832 52.9727 74.8242V74.9004C52.9727 75.5176 52.8535 76.0723 52.6152 76.5645C52.3809 77.0527 52.043 77.4336 51.6016 77.707C51.1641 77.9805 50.6602 78.1172 50.0898 78.1172C49.2305 78.1172 48.5332 77.8184 47.998 77.2207C47.4668 76.623 47.2012 75.832 47.2012 74.8477V74.7715ZM48.291 74.9004C48.291 75.6035 48.4531 76.168 48.7773 76.5938C49.1055 77.0195 49.543 77.2324 50.0898 77.2324C50.6406 77.2324 51.0781 77.0176 51.4023 76.5879C51.7266 76.1543 51.8887 75.5488 51.8887 74.7715C51.8887 74.0762 51.7227 73.5137 51.3906 73.084C51.0625 72.6504 50.625 72.4336 50.0781 72.4336C49.543 72.4336 49.1113 72.6465 48.7832 73.0723C48.4551 73.498 48.291 74.1074 48.291 74.9004ZM57.3965 72.6328C57.2324 72.6055 57.0547 72.5918 56.8633 72.5918C56.1523 72.5918 55.6699 72.8945 55.416 73.5V78H54.332V71.6602H55.3867L55.4043 72.3926C55.7598 71.8262 56.2637 71.543 56.916 71.543C57.127 71.543 57.2871 71.5703 57.3965 71.625V72.6328ZM33.7598 92H32.6289V88.0566H28.3281V92H27.2031V83.4688H28.3281V87.1367H32.6289V83.4688H33.7598V92ZM38.2188 92.1172C37.3594 92.1172 36.6602 91.8359 36.1211 91.2734C35.582 90.707 35.3125 89.9512 35.3125 89.0059V88.8066C35.3125 88.1777 35.4316 87.6172 35.6699 87.125C35.9121 86.6289 36.248 86.2422 36.6777 85.9648C37.1113 85.6836 37.5801 85.543 38.084 85.543C38.9082 85.543 39.5488 85.8145 40.0059 86.3574C40.4629 86.9004 40.6914 87.6777 40.6914 88.6895V89.1406H36.3965C36.4121 89.7656 36.5938 90.2715 36.9414 90.6582C37.293 91.041 37.7383 91.2324 38.2773 91.2324C38.6602 91.2324 38.9844 91.1543 39.25 90.998C39.5156 90.8418 39.748 90.6348 39.9473 90.377L40.6094 90.8926C40.0781 91.709 39.2812 92.1172 38.2188 92.1172ZM38.084 86.4336C37.6465 86.4336 37.2793 86.5938 36.9824 86.9141C36.6855 87.2305 36.502 87.6758 36.4316 88.25H39.6074V88.168C39.5762 87.6172 39.4277 87.1914 39.1621 86.8906C38.8965 86.5859 38.5371 86.4336 38.084 86.4336ZM43.1289 92H42.0449V83H43.1289V92ZM50.2246 88.9004C50.2246 89.8652 50.0039 90.6426 49.5625 91.2324C49.1211 91.8223 48.5234 92.1172 47.7695 92.1172C47 92.1172 46.3945 91.873 45.9531 91.3848V94.4375H44.8691V85.6602H45.8594L45.9121 86.3633C46.3535 85.8164 46.9668 85.543 47.752 85.543C48.5137 85.543 49.1152 85.8301 49.5566 86.4043C50.002 86.9785 50.2246 87.7773 50.2246 88.8008V88.9004ZM49.1406 88.7773C49.1406 88.0625 48.9883 87.498 48.6836 87.084C48.3789 86.6699 47.9609 86.4629 47.4297 86.4629C46.7734 86.4629 46.2812 86.7539 45.9531 87.3359V90.3652C46.2773 90.9434 46.7734 91.2324 47.4414 91.2324C47.9609 91.2324 48.373 91.0273 48.6777 90.6172C48.9863 90.2031 49.1406 89.5898 49.1406 88.7773Z" fill="white"/>
<path opacity="0.54" fill-rule="evenodd" clip-rule="evenodd" d="M48 27.5H28C26.625 27.5 25.5 28.625 25.5 30V52.5L30.5 47.5H48C49.375 47.5 50.5 46.375 50.5 45V30C50.5 28.625 49.375 27.5 48 27.5Z" fill="white"/>
<defs>
<linearGradient id="paint0_linear" x1="49" y1="0" x2="49" y2="110" gradientUnits="userSpaceOnUse">
<stop stop-color="#0B6ECF"/>
<stop offset="1" stop-color="#0EA3E2"/>
</linearGradient>
</defs>
</svg>
