<svg width="15" height="15" viewBox="0 0 15 15" fill="none" xmlns="http://www.w3.org/2000/svg">
<path d="M7.49897 12C7.57288 11.9999 7.6457 11.9821 7.71127 11.948C7.77685 11.9139 7.83325 11.8645 7.87571 11.804L11.184 7.08892C11.6575 6.41443 11.9367 5.62293 11.9914 4.80066C12.046 3.97839 11.8739 3.15691 11.4938 2.42571C11.1137 1.69452 10.5402 1.08167 9.83585 0.653943C9.13147 0.226216 8.32321 1.86344e-05 7.49913 1.15129e-09C6.67505 -1.86321e-05 5.86677 0.226142 5.16237 0.653838C4.45797 1.08153 3.88446 1.69436 3.50435 2.42553C3.12424 3.15671 2.95209 3.97819 3.00668 4.80046C3.06126 5.62272 3.34048 6.41424 3.81391 7.08875L7.12223 11.8042C7.16472 11.8646 7.22113 11.914 7.2867 11.948C7.35227 11.9821 7.42507 11.9999 7.49897 12ZM5.05805 1.5436C5.77403 0.952923 6.67991 0.641904 7.60772 0.668215C8.53554 0.694526 9.42234 1.05638 10.1037 1.68668C10.7851 2.31699 11.2147 3.17298 11.3131 4.09594C11.4114 5.0189 11.1718 5.94622 10.6385 6.70594L7.49897 11.1804L4.35941 6.70578C3.80902 5.9139 3.57544 4.94448 3.70478 3.98882C3.83411 3.03316 4.31697 2.1607 5.05805 1.5436ZM9.97276 4.48863C9.97268 3.99937 9.82754 3.52113 9.55567 3.11436C9.2838 2.7076 8.89742 2.39059 8.44539 2.20341C7.99336 2.01623 7.49598 1.96729 7.01613 2.06278C6.53629 2.15828 6.09553 2.39391 5.7496 2.73989C5.40368 3.08587 5.16811 3.52666 5.07268 4.00652C4.97726 4.48637 5.02627 4.98375 5.21352 5.43576C5.40076 5.88776 5.71784 6.27409 6.12464 6.5459C6.53145 6.81771 7.00971 6.96278 7.49897 6.96278C8.15488 6.96201 8.78371 6.70108 9.24748 6.23724C9.71124 5.77341 9.97208 5.14454 9.97276 4.48863ZM5.69175 4.48863C5.69181 4.13121 5.79784 3.78183 5.99646 3.48467C6.19507 3.18751 6.47733 2.95592 6.80756 2.81917C7.13779 2.68243 7.50115 2.64668 7.8517 2.71644C8.20225 2.78621 8.52424 2.95835 8.77695 3.2111C9.02967 3.46386 9.20177 3.78587 9.27147 4.13643C9.34118 4.48699 9.30538 4.85034 9.16859 5.18055C9.0318 5.51076 8.80016 5.79299 8.50297 5.99156C8.20578 6.19013 7.85639 6.29611 7.49897 6.29611C7.01979 6.29555 6.5604 6.10493 6.2216 5.76608C5.88279 5.42722 5.69224 4.96781 5.69175 4.48863ZM14.9802 14.5594C14.9973 14.6096 15.0021 14.6631 14.9943 14.7155C14.9866 14.7679 14.9664 14.8177 14.9356 14.8607C14.9047 14.9038 14.8641 14.9389 14.817 14.9631C14.7699 14.9873 14.7176 15 14.6647 15H0.33326C0.280286 15 0.228079 14.9873 0.180965 14.9631C0.133851 14.9389 0.0931867 14.9038 0.0623419 14.8607C0.031497 14.8177 0.0113595 14.7679 0.00359786 14.7155C-0.00416376 14.6631 0.000673976 14.6096 0.0177103 14.5594L1.68415 9.65927C1.70653 9.59334 1.749 9.53607 1.8056 9.49552C1.8622 9.45497 1.93008 9.43318 1.9997 9.43319H4.49937V10.0999H2.23844L0.798692 14.3333H14.1992L12.7595 10.0999H10.4986V9.43319H12.9982C13.0679 9.43318 13.1357 9.45497 13.1923 9.49552C13.2489 9.53607 13.2914 9.59334 13.3138 9.65927L14.9802 14.5594Z" fill="#0B6ECF"/>
</svg>
