<svg width="16" height="16" viewBox="0 0 16 16" fill="none" xmlns="http://www.w3.org/2000/svg">
<path fill-rule="evenodd" clip-rule="evenodd" d="M16 8C16 12.4183 12.4183 16 8 16C3.58172 16 3.13124e-07 12.4183 6.99382e-07 8C1.08564e-06 3.58172 3.58172 3.13124e-07 8 6.99382e-07C12.4183 1.08564e-06 16 3.58172 16 8ZM14.6716 8.47662L6.0377 8.47662C5.90527 8.47662 5.87461 8.55152 5.96728 8.64392L8.32749 10.9986C8.77792 11.4481 8.10252 12.1221 7.65209 11.6726L4.35737 8.42843C4.12071 8.19602 4.11977 7.82108 4.35404 7.58977L7.65209 4.32732C8.10252 3.87783 8.77792 4.55206 8.32749 5.00131L5.96728 7.35601C5.87489 7.44812 5.90614 7.52331 6.0377 7.52331L14.6716 7.52331C14.9368 7.52331 15.1275 7.31051 15.1015 7.04801C15.1015 7.04801 15.1218 7.19978 15.1005 7.04042C14.6316 3.53748 11.6313 0.835822 8 0.835822C4.04333 0.835822 0.835822 4.04333 0.835822 8C0.835821 11.9567 4.04333 15.1642 8 15.1642C11.6323 15.1642 14.6333 12.461 15.1009 8.95654C15.122 8.79815 15.1014 8.9528 15.1014 8.9528C15.1295 8.69069 14.935 8.47662 14.6716 8.47662Z" fill="#0B6ECF"/>
</svg>
