<svg width="183" height="27" viewBox="0 0 183 27" fill="none" xmlns="http://www.w3.org/2000/svg">
<path d="M5.00977 14.4121C5.00977 15.2357 4.82747 15.89 4.46289 16.375C4.09831 16.8568 3.61003 17.0977 2.99805 17.0977C2.27539 17.0977 1.72201 16.8438 1.33789 16.3359V19.0312H0.756836V11.7168H1.29883L1.32812 12.4639C1.70898 11.9007 2.26074 11.6191 2.9834 11.6191C3.61491 11.6191 4.1097 11.8584 4.46777 12.3369C4.8291 12.8154 5.00977 13.4795 5.00977 14.3291V14.4121ZM4.42383 14.3096C4.42383 13.6357 4.28548 13.1035 4.00879 12.7129C3.7321 12.3223 3.34635 12.127 2.85156 12.127C2.49349 12.127 2.18587 12.2132 1.92871 12.3857C1.67155 12.5583 1.47461 12.8089 1.33789 13.1377V15.6719C1.47786 15.9746 1.67806 16.2057 1.93848 16.3652C2.19889 16.5247 2.50651 16.6045 2.86133 16.6045C3.35286 16.6045 3.73535 16.4092 4.00879 16.0186C4.28548 15.6247 4.42383 15.055 4.42383 14.3096ZM5.98633 14.2803C5.98633 13.7725 6.08398 13.3151 6.2793 12.9082C6.47786 12.5013 6.75618 12.1855 7.11426 11.9609C7.47559 11.7331 7.88411 11.6191 8.33984 11.6191C9.04297 11.6191 9.61263 11.8665 10.0488 12.3613C10.485 12.8529 10.7031 13.5055 10.7031 14.3193V14.4414C10.7031 14.9525 10.6038 15.4131 10.4053 15.8232C10.21 16.2301 9.93327 16.5443 9.5752 16.7656C9.21712 16.987 8.80859 17.0977 8.34961 17.0977C7.64974 17.0977 7.08008 16.8519 6.64062 16.3604C6.20443 15.8656 5.98633 15.2113 5.98633 14.3975V14.2803ZM6.57227 14.4414C6.57227 15.0729 6.73503 15.5921 7.06055 15.999C7.38932 16.4027 7.81901 16.6045 8.34961 16.6045C8.87695 16.6045 9.30339 16.4027 9.62891 15.999C9.95768 15.5921 10.1221 15.0566 10.1221 14.3926V14.2803C10.1221 13.8766 10.0472 13.5072 9.89746 13.1719C9.74772 12.8366 9.53776 12.5778 9.26758 12.3955C8.9974 12.21 8.68815 12.1172 8.33984 12.1172C7.81901 12.1172 7.39421 12.3223 7.06543 12.7324C6.73665 13.1393 6.57227 13.6732 6.57227 14.334V14.4414ZM13.1787 15.7842L13.2666 16.2383L13.3838 15.7598L14.6533 11.7168H15.1514L16.4062 15.7256L16.543 16.2822L16.6553 15.7695L17.7393 11.7168H18.3447L16.8066 17H16.3086L14.9512 12.8105L14.8877 12.5225L14.8242 12.8154L13.4912 17H12.9932L11.46 11.7168H12.0605L13.1787 15.7842ZM21.499 17.0977C21.0498 17.0977 20.6429 16.987 20.2783 16.7656C19.917 16.5443 19.6354 16.2367 19.4336 15.8428C19.2318 15.4456 19.1309 15.0013 19.1309 14.5098V14.2998C19.1309 13.792 19.2285 13.3346 19.4238 12.9277C19.6224 12.5208 19.8975 12.2018 20.249 11.9707C20.6006 11.7363 20.9814 11.6191 21.3916 11.6191C22.0329 11.6191 22.5407 11.8389 22.915 12.2783C23.2926 12.7145 23.4814 13.3118 23.4814 14.0703V14.3975H19.7119V14.5098C19.7119 15.1087 19.8828 15.6084 20.2246 16.0088C20.5697 16.4059 21.0026 16.6045 21.5234 16.6045C21.8359 16.6045 22.111 16.5475 22.3486 16.4336C22.5895 16.3197 22.8076 16.1374 23.0029 15.8867L23.3691 16.165C22.9395 16.7868 22.3161 17.0977 21.499 17.0977ZM21.3916 12.1172C20.9521 12.1172 20.5811 12.2783 20.2783 12.6006C19.9788 12.9229 19.7965 13.3558 19.7314 13.8994H22.9004V13.8359C22.8841 13.3281 22.7393 12.9147 22.4658 12.5957C22.1924 12.2767 21.8343 12.1172 21.3916 12.1172ZM27.0605 12.2148C26.9368 12.1921 26.805 12.1807 26.665 12.1807C26.3005 12.1807 25.9912 12.2832 25.7373 12.4883C25.4867 12.6901 25.3076 12.9847 25.2002 13.3721V17H24.6191V11.7168H25.1904L25.2002 12.5566C25.5094 11.9316 26.0059 11.6191 26.6895 11.6191C26.8522 11.6191 26.9808 11.6403 27.0752 11.6826L27.0605 12.2148ZM29.9365 17.0977C29.4873 17.0977 29.0804 16.987 28.7158 16.7656C28.3545 16.5443 28.0729 16.2367 27.8711 15.8428C27.6693 15.4456 27.5684 15.0013 27.5684 14.5098V14.2998C27.5684 13.792 27.666 13.3346 27.8613 12.9277C28.0599 12.5208 28.335 12.2018 28.6865 11.9707C29.0381 11.7363 29.4189 11.6191 29.8291 11.6191C30.4704 11.6191 30.9782 11.8389 31.3525 12.2783C31.7301 12.7145 31.9189 13.3118 31.9189 14.0703V14.3975H28.1494V14.5098C28.1494 15.1087 28.3203 15.6084 28.6621 16.0088C29.0072 16.4059 29.4401 16.6045 29.9609 16.6045C30.2734 16.6045 30.5485 16.5475 30.7861 16.4336C31.027 16.3197 31.2451 16.1374 31.4404 15.8867L31.8066 16.165C31.377 16.7868 30.7536 17.0977 29.9365 17.0977ZM29.8291 12.1172C29.3896 12.1172 29.0186 12.2783 28.7158 12.6006C28.4163 12.9229 28.234 13.3558 28.1689 13.8994H31.3379V13.8359C31.3216 13.3281 31.1768 12.9147 30.9033 12.5957C30.6299 12.2767 30.2718 12.1172 29.8291 12.1172ZM32.8223 14.3096C32.8223 13.4893 33.0046 12.8366 33.3691 12.3516C33.737 11.8633 34.235 11.6191 34.8633 11.6191C35.5762 11.6191 36.1198 11.9007 36.4941 12.4639V9.5H37.0752V17H36.5283L36.5039 16.2969C36.1296 16.8307 35.5794 17.0977 34.8535 17.0977C34.2448 17.0977 33.7533 16.8535 33.3789 16.3652C33.0078 15.8737 32.8223 15.2113 32.8223 14.3779V14.3096ZM33.4131 14.4121C33.4131 15.0859 33.5482 15.6182 33.8184 16.0088C34.0885 16.3962 34.4694 16.5898 34.9609 16.5898C35.6803 16.5898 36.1914 16.2725 36.4941 15.6377V13.1572C36.1914 12.4704 35.6836 12.127 34.9707 12.127C34.4792 12.127 34.0967 12.3206 33.8232 12.708C33.5498 13.0921 33.4131 13.6602 33.4131 14.4121ZM45.2979 14.4121C45.2979 15.2357 45.1156 15.89 44.751 16.375C44.3864 16.8568 43.8965 17.0977 43.2812 17.0977C42.5456 17.0977 41.9889 16.8242 41.6113 16.2773L41.5869 17H41.04V9.5H41.6211V12.4834C41.9922 11.9072 42.5423 11.6191 43.2715 11.6191C43.8965 11.6191 44.3896 11.8584 44.751 12.3369C45.1156 12.8122 45.2979 13.4746 45.2979 14.3242V14.4121ZM44.7119 14.3096C44.7119 13.613 44.5768 13.0758 44.3066 12.6982C44.0365 12.3174 43.6556 12.127 43.1641 12.127C42.7897 12.127 42.4723 12.2197 42.2119 12.4053C41.9515 12.5876 41.7546 12.8561 41.6211 13.2109V15.5938C41.9141 16.2578 42.4316 16.5898 43.1738 16.5898C43.6556 16.5898 44.0316 16.3994 44.3018 16.0186C44.5752 15.6377 44.7119 15.068 44.7119 14.3096ZM48.208 16.1602L49.751 11.7168H50.3809L48.125 17.8984L48.0078 18.1719C47.7181 18.8132 47.2705 19.1338 46.665 19.1338C46.5251 19.1338 46.3753 19.111 46.2158 19.0654L46.2109 18.582L46.5137 18.6113C46.8001 18.6113 47.0312 18.5397 47.207 18.3965C47.3861 18.2565 47.5374 18.014 47.6611 17.6689L47.9199 16.9561L45.9277 11.7168H46.5674L48.208 16.1602Z" fill="#737373"/>
<path d="M85.5133 22.4053C85.4344 22.3093 85.3367 22.2356 85.2201 22.1842C85.107 22.1327 84.975 22.107 84.8242 22.107C84.6733 22.107 84.5328 22.1362 84.4025 22.1945C84.2756 22.2527 84.1642 22.335 84.0682 22.4413C83.9756 22.5442 83.9019 22.6677 83.8471 22.8117C83.7956 22.9557 83.7699 23.1117 83.7699 23.2797C83.7699 23.4512 83.7956 23.6089 83.8471 23.7529C83.9019 23.8935 83.9756 24.017 84.0682 24.1233C84.1608 24.2261 84.2688 24.3067 84.3922 24.365C84.519 24.4233 84.6545 24.4525 84.7985 24.4525C84.963 24.4525 85.1087 24.4182 85.2356 24.3496C85.3624 24.281 85.467 24.185 85.5493 24.0615L86.2178 24.5605C86.0635 24.7765 85.8681 24.9359 85.6316 25.0388C85.395 25.1417 85.1516 25.1931 84.9013 25.1931C84.6167 25.1931 84.3545 25.1485 84.1145 25.0594C83.8745 24.9702 83.6671 24.8434 83.4922 24.6788C83.3174 24.5107 83.1802 24.3084 83.0808 24.0718C82.9848 23.8352 82.9368 23.5712 82.9368 23.2797C82.9368 22.9883 82.9848 22.7242 83.0808 22.4876C83.1802 22.251 83.3174 22.0504 83.4922 21.8858C83.6671 21.7178 83.8745 21.5892 84.1145 21.5001C84.3545 21.4109 84.6167 21.3663 84.9013 21.3663C85.0042 21.3663 85.1104 21.3766 85.2201 21.3972C85.3333 21.4144 85.443 21.4435 85.5493 21.4846C85.659 21.5258 85.7636 21.5807 85.863 21.6492C85.9624 21.7178 86.0515 21.8018 86.1304 21.9013L85.5133 22.4053Z" fill="#ADADAD"/>
<path d="M88.1029 23.2797C88.1029 22.9883 88.1509 22.7242 88.2469 22.4876C88.3464 22.251 88.4835 22.0504 88.6583 21.8858C88.8332 21.7178 89.0406 21.5892 89.2806 21.5001C89.5206 21.4109 89.7829 21.3663 90.0674 21.3663C90.352 21.3663 90.6143 21.4109 90.8542 21.5001C91.0942 21.5892 91.3017 21.7178 91.4765 21.8858C91.6514 22.0504 91.7868 22.251 91.8828 22.4876C91.9822 22.7242 92.0319 22.9883 92.0319 23.2797C92.0319 23.5712 91.9822 23.8352 91.8828 24.0718C91.7868 24.3084 91.6514 24.5107 91.4765 24.6788C91.3017 24.8434 91.0942 24.9702 90.8542 25.0594C90.6143 25.1485 90.352 25.1931 90.0674 25.1931C89.7829 25.1931 89.5206 25.1485 89.2806 25.0594C89.0406 24.9702 88.8332 24.8434 88.6583 24.6788C88.4835 24.5107 88.3464 24.3084 88.2469 24.0718C88.1509 23.8352 88.1029 23.5712 88.1029 23.2797ZM88.936 23.2797C88.936 23.4512 88.9618 23.6089 89.0132 23.7529C89.068 23.8935 89.1452 24.017 89.2446 24.1233C89.344 24.2261 89.4623 24.3067 89.5994 24.365C89.74 24.4233 89.896 24.4525 90.0674 24.4525C90.2388 24.4525 90.3931 24.4233 90.5303 24.365C90.6708 24.3067 90.7908 24.2261 90.8902 24.1233C90.9897 24.017 91.0651 23.8935 91.1165 23.7529C91.1714 23.6089 91.1988 23.4512 91.1988 23.2797C91.1988 23.1117 91.1714 22.9557 91.1165 22.8117C91.0651 22.6677 90.9897 22.5442 90.8902 22.4413C90.7908 22.335 90.6708 22.2527 90.5303 22.1945C90.3931 22.1362 90.2388 22.107 90.0674 22.107C89.896 22.107 89.74 22.1362 89.5994 22.1945C89.4623 22.2527 89.344 22.335 89.2446 22.4413C89.1452 22.5442 89.068 22.6677 89.0132 22.8117C88.9618 22.9557 88.936 23.1117 88.936 23.2797Z" fill="#ADADAD"/>
<path d="M94.2228 21.4589H95.3131L96.861 23.9895H96.8713V21.4589H97.6735V25.1005H96.6244L95.0353 22.5082H95.0251V25.1005H94.2228V21.4589Z" fill="#ADADAD"/>
<path d="M99.7019 21.4589H100.617L101.517 23.8455H101.528L102.443 21.4589H103.302L101.8 25.1005H101.157L99.7019 21.4589Z" fill="#ADADAD"/>
<path d="M105.359 21.4589H107.833V22.1996H106.162V22.8785H107.74V23.6192H106.162V24.3599H107.925V25.1005H105.359V21.4589Z" fill="#ADADAD"/>
<path d="M110.213 21.4589H111.622C111.808 21.4589 111.982 21.4778 112.147 21.5155C112.315 21.5498 112.461 21.6098 112.584 21.6955C112.711 21.7778 112.81 21.891 112.882 22.035C112.958 22.1756 112.995 22.3522 112.995 22.5648C112.995 22.822 112.929 23.0414 112.795 23.2232C112.661 23.4015 112.466 23.5146 112.209 23.5626L113.134 25.1005H112.173L111.412 23.6449H111.016V25.1005H110.213V21.4589ZM111.016 22.966H111.489C111.561 22.966 111.636 22.9643 111.715 22.9608C111.797 22.954 111.871 22.9385 111.936 22.9145C112.001 22.8871 112.054 22.846 112.096 22.7911C112.14 22.7362 112.162 22.6591 112.162 22.5596C112.162 22.4671 112.144 22.3933 112.106 22.3385C112.068 22.2836 112.02 22.2425 111.962 22.215C111.904 22.1842 111.837 22.1636 111.761 22.1533C111.686 22.143 111.612 22.1379 111.54 22.1379H111.016V22.966Z" fill="#ADADAD"/>
<path d="M116.994 22.3488C116.928 22.2665 116.839 22.2065 116.726 22.1687C116.616 22.1276 116.512 22.107 116.412 22.107C116.354 22.107 116.294 22.1139 116.232 22.1276C116.171 22.1413 116.112 22.1636 116.058 22.1945C116.003 22.2219 115.958 22.2596 115.924 22.3076C115.89 22.3556 115.872 22.4139 115.872 22.4825C115.872 22.5922 115.914 22.6762 115.996 22.7345C116.078 22.7928 116.181 22.8425 116.304 22.8837C116.431 22.9248 116.567 22.966 116.711 23.0071C116.855 23.0483 116.988 23.1066 117.112 23.182C117.239 23.2574 117.343 23.3586 117.426 23.4855C117.508 23.6123 117.549 23.7821 117.549 23.9947C117.549 24.197 117.511 24.3736 117.436 24.5245C117.36 24.6753 117.258 24.8005 117.127 24.8999C117 24.9994 116.851 25.0731 116.68 25.1211C116.512 25.1691 116.334 25.1931 116.145 25.1931C115.908 25.1931 115.689 25.1571 115.487 25.0851C115.284 25.0131 115.096 24.8965 114.921 24.7353L115.492 24.1078C115.574 24.2176 115.677 24.3033 115.8 24.365C115.927 24.4233 116.058 24.4525 116.191 24.4525C116.256 24.4525 116.322 24.4456 116.387 24.4319C116.455 24.4147 116.515 24.3907 116.567 24.3599C116.622 24.329 116.664 24.2896 116.695 24.2416C116.73 24.1936 116.747 24.137 116.747 24.0718C116.747 23.9621 116.704 23.8764 116.618 23.8147C116.536 23.7495 116.431 23.6946 116.304 23.6501C116.178 23.6055 116.04 23.5609 115.893 23.5163C115.746 23.4718 115.608 23.4118 115.482 23.3363C115.355 23.2609 115.248 23.1614 115.163 23.038C115.08 22.9145 115.039 22.7517 115.039 22.5494C115.039 22.3539 115.077 22.1825 115.152 22.035C115.231 21.8876 115.334 21.7641 115.461 21.6647C115.591 21.5652 115.74 21.4915 115.908 21.4435C116.076 21.3921 116.25 21.3663 116.428 21.3663C116.634 21.3663 116.832 21.3955 117.024 21.4538C117.216 21.5121 117.39 21.6098 117.544 21.747L116.994 22.3488Z" fill="#ADADAD"/>
<path d="M119.782 21.4589H120.584V25.1005H119.782V21.4589Z" fill="#ADADAD"/>
<path d="M122.764 23.2797C122.764 22.9883 122.812 22.7242 122.908 22.4876C123.008 22.251 123.145 22.0504 123.32 21.8858C123.494 21.7178 123.702 21.5892 123.942 21.5001C124.182 21.4109 124.444 21.3663 124.729 21.3663C125.013 21.3663 125.275 21.4109 125.515 21.5001C125.755 21.5892 125.963 21.7178 126.138 21.8858C126.313 22.0504 126.448 22.251 126.544 22.4876C126.643 22.7242 126.693 22.9883 126.693 23.2797C126.693 23.5712 126.643 23.8352 126.544 24.0718C126.448 24.3084 126.313 24.5107 126.138 24.6788C125.963 24.8434 125.755 24.9702 125.515 25.0594C125.275 25.1485 125.013 25.1931 124.729 25.1931C124.444 25.1931 124.182 25.1485 123.942 25.0594C123.702 24.9702 123.494 24.8434 123.32 24.6788C123.145 24.5107 123.008 24.3084 122.908 24.0718C122.812 23.8352 122.764 23.5712 122.764 23.2797ZM123.597 23.2797C123.597 23.4512 123.623 23.6089 123.674 23.7529C123.729 23.8935 123.806 24.017 123.906 24.1233C124.005 24.2261 124.124 24.3067 124.261 24.365C124.401 24.4233 124.557 24.4525 124.729 24.4525C124.9 24.4525 125.054 24.4233 125.191 24.365C125.332 24.3067 125.452 24.2261 125.551 24.1233C125.651 24.017 125.726 23.8935 125.778 23.7529C125.833 23.6089 125.86 23.4512 125.86 23.2797C125.86 23.1117 125.833 22.9557 125.778 22.8117C125.726 22.6677 125.651 22.5442 125.551 22.4413C125.452 22.335 125.332 22.2527 125.191 22.1945C125.054 22.1362 124.9 22.107 124.729 22.107C124.557 22.107 124.401 22.1362 124.261 22.1945C124.124 22.2527 124.005 22.335 123.906 22.4413C123.806 22.5442 123.729 22.6677 123.674 22.8117C123.623 22.9557 123.597 23.1117 123.597 23.2797Z" fill="#ADADAD"/>
<path d="M128.884 21.4589H129.974L131.522 23.9895H131.532V21.4589H132.335V25.1005H131.286L129.697 22.5082H129.686V25.1005H128.884V21.4589Z" fill="#ADADAD"/>
<path d="M134.641 24.6582C134.641 24.593 134.653 24.5313 134.677 24.473C134.701 24.4147 134.733 24.365 134.775 24.3239C134.819 24.2793 134.871 24.245 134.929 24.221C134.987 24.197 135.049 24.185 135.114 24.185C135.179 24.185 135.241 24.197 135.299 24.221C135.357 24.245 135.407 24.2793 135.448 24.3239C135.493 24.365 135.527 24.4147 135.551 24.473C135.575 24.5313 135.587 24.593 135.587 24.6582C135.587 24.7233 135.575 24.7851 135.551 24.8434C135.527 24.9017 135.493 24.9531 135.448 24.9977C135.407 25.0388 135.357 25.0714 135.299 25.0954C135.241 25.1194 135.179 25.1314 135.114 25.1314C135.049 25.1314 134.987 25.1194 134.929 25.0954C134.871 25.0714 134.819 25.0388 134.775 24.9977C134.733 24.9531 134.701 24.9017 134.677 24.8434C134.653 24.7851 134.641 24.7233 134.641 24.6582Z" fill="#ADADAD"/>
<path d="M137.89 21.4589H139.094C139.385 21.4589 139.661 21.4915 139.922 21.5567C140.186 21.6218 140.415 21.7281 140.611 21.8756C140.806 22.0196 140.961 22.2082 141.074 22.4413C141.19 22.6745 141.249 22.9574 141.249 23.29C141.249 23.5849 141.192 23.8455 141.079 24.0718C140.969 24.2947 140.82 24.4833 140.631 24.6376C140.443 24.7885 140.225 24.9034 139.978 24.9822C139.731 25.0611 139.473 25.1005 139.202 25.1005H137.89V21.4589ZM138.693 24.3599H139.109C139.294 24.3599 139.466 24.341 139.624 24.3033C139.785 24.2656 139.923 24.2039 140.04 24.1181C140.157 24.029 140.247 23.9141 140.313 23.7735C140.381 23.6295 140.415 23.4546 140.415 23.2489C140.415 23.0706 140.381 22.9163 140.313 22.786C140.247 22.6522 140.158 22.5425 140.045 22.4568C139.932 22.371 139.798 22.3076 139.644 22.2665C139.493 22.2219 139.334 22.1996 139.166 22.1996H138.693V24.3599Z" fill="#ADADAD"/>
<path d="M143.469 21.4589H145.943V22.1996H144.271V22.8785H145.85V23.6192H144.271V24.3599H146.035V25.1005H143.469V21.4589Z" fill="#ADADAD"/>
<path d="M148.354 21.4589H149.156V24.3599H150.642V25.1005H148.354V21.4589Z" fill="#ADADAD"/>
<path d="M152.721 21.4589H153.523V25.1005H152.721V21.4589Z" fill="#ADADAD"/>
<path d="M155.538 21.4589H156.454L157.354 23.8455H157.364L158.279 21.4589H159.138L157.636 25.1005H156.994L155.538 21.4589Z" fill="#ADADAD"/>
<path d="M161.196 21.4589H163.669V22.1996H161.998V22.8785H163.577V23.6192H161.998V24.3599H163.762V25.1005H161.196V21.4589Z" fill="#ADADAD"/>
<path d="M166.05 21.4589H167.459C167.644 21.4589 167.819 21.4778 167.983 21.5155C168.151 21.5498 168.297 21.6098 168.42 21.6955C168.547 21.7778 168.647 21.891 168.719 22.035C168.794 22.1756 168.832 22.3522 168.832 22.5648C168.832 22.822 168.765 23.0414 168.631 23.2232C168.498 23.4015 168.302 23.5146 168.045 23.5626L168.971 25.1005H168.009L167.248 23.6449H166.852V25.1005H166.05V21.4589ZM166.852 22.966H167.325C167.397 22.966 167.472 22.9643 167.551 22.9608C167.634 22.954 167.707 22.9385 167.772 22.9145C167.838 22.8871 167.891 22.846 167.932 22.7911C167.976 22.7362 167.999 22.6591 167.999 22.5596C167.999 22.4671 167.98 22.3933 167.942 22.3385C167.904 22.2836 167.856 22.2425 167.798 22.215C167.74 22.1842 167.673 22.1636 167.598 22.1533C167.522 22.143 167.448 22.1379 167.376 22.1379H166.852V22.966Z" fill="#ADADAD"/>
<path d="M171.061 21.4589H173.534V22.1996H171.863V22.8785H173.442V23.6192H171.863V24.3599H173.627V25.1005H171.061V21.4589Z" fill="#ADADAD"/>
<path d="M175.915 21.4589H177.118C177.41 21.4589 177.686 21.4915 177.946 21.5567C178.21 21.6218 178.44 21.7281 178.635 21.8756C178.831 22.0196 178.985 22.2082 179.098 22.4413C179.215 22.6745 179.273 22.9574 179.273 23.29C179.273 23.5849 179.216 23.8455 179.103 24.0718C178.994 24.2947 178.844 24.4833 178.656 24.6376C178.467 24.7885 178.25 24.9034 178.003 24.9822C177.756 25.0611 177.497 25.1005 177.226 25.1005H175.915V21.4589ZM176.717 24.3599H177.134C177.319 24.3599 177.49 24.341 177.648 24.3033C177.809 24.2656 177.948 24.2039 178.064 24.1181C178.181 24.029 178.272 23.9141 178.337 23.7735C178.406 23.6295 178.44 23.4546 178.44 23.2489C178.44 23.0706 178.406 22.9163 178.337 22.786C178.272 22.6522 178.183 22.5425 178.07 22.4568C177.956 22.371 177.823 22.3076 177.668 22.2665C177.518 22.2219 177.358 22.1996 177.19 22.1996H176.717V24.3599Z" fill="#ADADAD"/>
<path d="M181.38 24.6582C181.38 24.593 181.392 24.5313 181.416 24.473C181.44 24.4147 181.473 24.365 181.514 24.3239C181.559 24.2793 181.61 24.245 181.668 24.221C181.727 24.197 181.788 24.185 181.853 24.185C181.919 24.185 181.98 24.197 182.039 24.221C182.097 24.245 182.147 24.2793 182.188 24.3239C182.232 24.365 182.267 24.4147 182.291 24.473C182.315 24.5313 182.327 24.593 182.327 24.6582C182.327 24.7233 182.315 24.7851 182.291 24.8434C182.267 24.9017 182.232 24.9531 182.188 24.9977C182.147 25.0388 182.097 25.0714 182.039 25.0954C181.98 25.1194 181.919 25.1314 181.853 25.1314C181.788 25.1314 181.727 25.1194 181.668 25.0954C181.61 25.0714 181.559 25.0388 181.514 24.9977C181.473 24.9531 181.44 24.9017 181.416 24.8434C181.392 24.7851 181.38 24.7233 181.38 24.6582Z" fill="#ADADAD"/>
<path d="M79.1051 18.8706H80.5356V14.081H83.9751V12.8595H80.5356V9.50039H84.0554L84.4733 8.27888H79.1051V18.8706Z" fill="#204F84"/>
<path d="M92.0761 15.3829V15.0293C92.0761 12.6024 90.935 11.0755 88.942 11.0755C86.9972 11.0755 85.7275 12.6988 85.7275 15.0133C85.7275 17.183 86.8847 19.0314 89.4081 19.0314C90.276 19.0314 91.1921 18.7903 91.8993 18.3403L91.4653 17.3598C90.935 17.6491 90.3081 17.8742 89.5688 17.8742C88.074 17.8742 87.1901 16.8134 87.174 15.3829H92.0761ZM87.174 14.3221C87.1901 13.1649 87.849 12.2006 88.942 12.2006C90.0831 12.2006 90.5974 13.2614 90.6135 14.3221H87.174Z" fill="#204F84"/>
<path d="M93.6939 18.8706H95.1083V13.3578C95.7833 12.7792 96.5227 12.3291 97.2941 12.3291C98.3388 12.3291 98.596 13.1649 98.596 14.2418V18.8706H100.01V13.7757C100.01 11.7827 98.9014 11.0755 97.6959 11.0755C96.7316 11.0755 95.8798 11.5255 95.0601 12.2006L94.8833 11.2684H93.6939V18.8706Z" fill="#204F84"/>
<path d="M102.11 18.8706H103.524V11.2684H102.11V18.8706ZM102.817 9.70933C103.347 9.70933 103.749 9.30752 103.749 8.7932C103.749 8.27888 103.364 7.89314 102.817 7.89314C102.287 7.89314 101.917 8.29495 101.917 8.7932C101.917 9.30752 102.287 9.70933 102.817 9.70933Z" fill="#204F84"/>
<path d="M104.802 18.8706H106.345L108.354 16.0258L110.347 18.8706H111.874L109.174 15.0293L111.89 11.2684H110.379L108.402 14.065L106.474 11.2684H104.915L107.583 15.0615L104.802 18.8706Z" fill="#204F84"/>
<path d="M120.835 17.1186C120.095 17.5204 119.292 17.8098 118.295 17.8098C115.965 17.8098 114.502 16.1061 114.502 13.6309C114.502 11.3165 115.981 9.40384 118.392 9.40384C119.452 9.40384 120.272 9.67708 121.027 10.0789V8.74487C120.465 8.43949 119.501 8.18233 118.359 8.18233C115.145 8.18233 112.991 10.6254 112.991 13.6952C112.991 16.7972 114.888 19.0313 118.134 19.0313C119.131 19.0313 120.176 18.8223 121.236 18.2598L120.835 17.1186Z" fill="#30B0CB"/>
<path d="M125.831 19.0313C128.016 19.0313 129.447 17.2954 129.447 15.0614C129.447 12.8112 128 11.0754 125.847 11.0754C123.661 11.0754 122.23 12.8112 122.23 15.0614C122.23 17.2954 123.661 19.0313 125.831 19.0313ZM125.831 17.858C124.497 17.858 123.693 16.6847 123.693 15.0614C123.693 13.422 124.497 12.2487 125.847 12.2487C127.181 12.2487 127.984 13.422 127.984 15.0614C127.984 16.6847 127.181 17.858 125.831 17.858Z" fill="#30B0CB"/>
<path d="M131.06 18.8705H132.475V13.3416C133.134 12.7791 133.873 12.329 134.629 12.329C135.673 12.329 135.898 13.1487 135.898 14.2095V18.8705H137.313V13.7434C137.313 13.6148 137.297 13.4702 137.297 13.3416C137.956 12.7791 138.695 12.329 139.45 12.329C140.495 12.329 140.72 13.1487 140.72 14.1934V18.8705H142.134V13.7756C142.134 11.8469 141.058 11.0754 139.804 11.0754C138.872 11.0754 137.907 11.5415 137.007 12.3451C136.638 11.4933 135.914 11.0754 135.03 11.0754C134.066 11.0754 133.198 11.5576 132.411 12.2005L132.25 11.2683H131.06V18.8705Z" fill="#30B0CB"/>
<path d="M144.104 18.8705H145.518V13.3416C146.177 12.7791 146.916 12.329 147.672 12.329C148.716 12.329 148.941 13.1487 148.941 14.2095V18.8705H150.356V13.7434C150.356 13.6148 150.34 13.4702 150.34 13.3416C150.999 12.7791 151.738 12.329 152.493 12.329C153.538 12.329 153.763 13.1487 153.763 14.1934V18.8705H155.178V13.7756C155.178 11.8469 154.101 11.0754 152.847 11.0754C151.915 11.0754 150.951 11.5415 150.05 12.3451C149.681 11.4933 148.958 11.0754 148.074 11.0754C147.109 11.0754 146.241 11.5576 145.454 12.2005L145.293 11.2683H144.104V18.8705Z" fill="#30B0CB"/>
<path d="M163.126 15.3828V15.0292C163.126 12.6023 161.985 11.0754 159.992 11.0754C158.047 11.0754 156.777 12.6987 156.777 15.0131C156.777 17.1829 157.934 19.0313 160.458 19.0313C161.326 19.0313 162.242 18.7902 162.949 18.3401L162.515 17.3597C161.985 17.649 161.358 17.874 160.618 17.874C159.124 17.874 158.24 16.8133 158.224 15.3828H163.126ZM158.224 14.322C158.24 13.1648 158.899 12.2005 159.992 12.2005C161.133 12.2005 161.647 13.2612 161.663 14.322H158.224Z" fill="#30B0CB"/>
<path d="M164.744 18.8705H166.158V13.3416C166.865 12.6505 167.363 12.3612 167.894 12.3612C168.151 12.3612 168.392 12.4255 168.633 12.5541L169.131 11.3004C168.906 11.1557 168.553 11.0754 168.231 11.0754C167.524 11.0754 166.897 11.3486 166.094 12.2005L165.933 11.2683H164.744V18.8705Z" fill="#30B0CB"/>
<path d="M173.187 19.0313C174.151 19.0313 175.051 18.7098 175.614 18.3241L175.196 17.3276C174.697 17.6008 174.151 17.858 173.38 17.858C171.917 17.858 170.969 16.8454 170.969 15.0614C170.969 13.4541 171.917 12.2487 173.476 12.2487C174.215 12.2487 174.794 12.4576 175.308 12.7951V11.5576C174.858 11.3004 174.183 11.0754 173.363 11.0754C171.049 11.0754 169.506 12.8755 169.506 15.1417C169.506 17.2954 170.808 19.0313 173.187 19.0313Z" fill="#30B0CB"/>
<path d="M182.808 15.3828V15.0292C182.808 12.6023 181.667 11.0754 179.674 11.0754C177.729 11.0754 176.46 12.6987 176.46 15.0131C176.46 17.1829 177.617 19.0313 180.14 19.0313C181.008 19.0313 181.924 18.7902 182.632 18.3401L182.198 17.3597C181.667 17.649 181.04 17.874 180.301 17.874C178.806 17.874 177.922 16.8133 177.906 15.3828H182.808ZM177.906 14.322C177.922 13.1648 178.581 12.2005 179.674 12.2005C180.815 12.2005 181.33 13.2612 181.346 14.322H177.906Z" fill="#30B0CB"/>
<path d="M80.1914 21.2191L80.1574 21.1851C79.6814 20.6411 78.8652 20.471 78.3212 20.9471L77.8111 21.2872L77.7771 21.4232L77.029 22.1033C76.995 22.1373 76.961 22.1713 76.9269 22.2053C75.0907 23.6335 72.8123 24.3816 70.364 24.3816C64.3111 24.3816 59.4484 19.5189 59.4484 13.466C59.4144 7.48111 64.3111 2.58438 70.364 2.58438C72.7103 2.58438 74.8526 3.4005 76.6549 4.55667C76.6889 4.59068 76.6889 4.59068 76.7229 4.62468L78.0831 5.67884C78.6612 6.12091 79.4773 6.01889 79.8854 5.44081L79.9194 5.4068C80.3615 4.82871 80.2594 4.01259 79.6814 3.60453L79.1033 3.12846C76.7909 1.19018 73.7645 0 70.5 0C63.0529 0 57 6.0529 57 13.534C57 20.9811 63.0529 27 70.5 27C74.1045 27 77.369 25.6058 79.7834 23.2934L80.0554 23.0554C80.5995 22.6133 80.6675 21.7632 80.1914 21.2191Z" fill="#30B0CB"/>
<path d="M75.6006 14.7239L67.1333 20.3687C66.3852 20.8448 65.3991 20.6408 64.889 19.9267C64.4129 19.1786 64.6169 18.1924 65.331 17.6823L73.7983 12.0375C74.5464 11.5614 75.5326 11.7655 76.0426 12.4796C76.5527 13.2277 76.3487 14.2138 75.6006 14.7239Z" fill="#204F84"/>
<path d="M74.5118 9.92975L66.0446 15.5746C65.2965 16.0507 64.3103 15.8466 63.8002 15.1325C63.3242 14.3844 63.5282 13.3983 64.2423 12.8882L72.7096 7.24336C73.4577 6.76728 74.4438 6.97132 74.9539 7.68542C75.464 8.43353 75.2599 9.45368 74.5118 9.92975Z" fill="#204F84"/>
</svg>
