<svg width="12" height="14" viewBox="0 0 12 14" fill="none" xmlns="http://www.w3.org/2000/svg">
<path d="M11.6993 14.0001H0V12.5831C0 11.2408 0.533209 9.95352 1.48233 9.00441C2.43145 8.05529 3.71873 7.52208 5.06098 7.52208H6.63832C7.98058 7.52208 9.26786 8.05529 10.217 9.00441C11.1661 9.95352 11.6993 11.2408 11.6993 12.5831V14.0001ZM0.843497 13.1566H10.8558V12.5831C10.8558 11.4645 10.4115 10.3918 9.62053 9.60085C8.8296 8.80992 7.75687 8.36558 6.63832 8.36558H5.06098C3.94244 8.36558 2.8697 8.80992 2.07877 9.60085C1.28784 10.3918 0.843497 11.4645 0.843497 12.5831V13.1566Z" fill="#0B6ECF"/>
<path d="M5.84962 7.10646C5.14677 7.10646 4.4597 6.89802 3.87533 6.50749C3.29096 6.11696 2.83553 5.5619 2.56666 4.91251C2.29779 4.26312 2.22754 3.54857 2.36482 2.85926C2.50209 2.16994 2.84071 1.53682 3.33785 1.03997C3.83499 0.543129 4.46831 0.204883 5.15771 0.0680189C5.84711 -0.068845 6.56161 0.00182201 7.21084 0.271081C7.86007 0.54034 8.41487 0.996095 8.80505 1.5807C9.19523 2.1653 9.40327 2.85249 9.40285 3.55534C9.40118 4.49701 9.02621 5.3996 8.36016 6.06526C7.6941 6.73092 6.79129 7.10535 5.84962 7.10646ZM5.84962 0.843498C5.31377 0.843499 4.78996 1.00237 4.34439 1.30003C3.89882 1.59768 3.55151 2.02076 3.34635 2.51578C3.1412 3.01079 3.08741 3.55552 3.1918 4.0811C3.29618 4.60668 3.55405 5.08951 3.9328 5.46856C4.31156 5.84761 4.79419 6.10585 5.31968 6.21064C5.84518 6.31544 6.38995 6.26207 6.88513 6.0573C7.3803 5.85253 7.80365 5.50555 8.10166 5.06021C8.39966 4.61488 8.55894 4.09119 8.55935 3.55534C8.55879 2.83685 8.27313 2.14794 7.76507 1.63989C7.25702 1.13183 6.56811 0.846166 5.84962 0.845607V0.843498Z" fill="#0B6ECF"/>
</svg>
